G04*
G04 #@! TF.GenerationSoftware,Altium Limited,Altium Designer,20.1.7 (139)*
G04*
G04 Layer_Physical_Order=2*
G04 Layer_Color=16711680*
%FSLAX44Y44*%
%MOMM*%
G71*
G04*
G04 #@! TF.SameCoordinates,B5950D26-3139-43EA-A648-6E47058778E0*
G04*
G04*
G04 #@! TF.FilePolarity,Positive*
G04*
G01*
G75*
%ADD13C,0.2540*%
%ADD17R,1.0000X1.7000*%
%ADD47C,1.2700*%
%ADD48C,1.5240*%
%ADD49R,1.6650X1.6650*%
%ADD50C,1.6650*%
%ADD51C,2.4750*%
%ADD52R,2.0700X2.0700*%
%ADD53C,2.0700*%
%ADD54C,3.0000*%
%ADD55R,2.5000X1.9000*%
%ADD56R,2.5000X2.5000*%
%ADD57C,1.2700*%
G36*
X918210Y1207770D02*
X919480Y1206500D01*
X914400Y1201420D01*
X416560D01*
Y1258570D01*
X918210D01*
Y1207770D01*
D02*
G37*
G36*
X1035050Y1339850D02*
X1099820Y1275080D01*
X1572260D01*
X1572260Y1159510D01*
X1347911Y1159510D01*
X1304740Y1202680D01*
X1302883Y1204105D01*
X1300721Y1205001D01*
X1298400Y1205307D01*
X1295400D01*
X1293079Y1205001D01*
X1290917Y1204105D01*
X1289060Y1202680D01*
X1287635Y1200823D01*
X1286739Y1198661D01*
X1286433Y1196340D01*
X1286739Y1194019D01*
X1287635Y1191857D01*
X1289060Y1190000D01*
X1290917Y1188575D01*
X1293079Y1187679D01*
X1294578Y1187482D01*
X1321376Y1160683D01*
X1320890Y1159510D01*
X1155700Y1159510D01*
X924560D01*
X924560Y1324610D01*
X857250D01*
Y1264920D01*
X800100D01*
Y1417320D01*
X1035050D01*
Y1339850D01*
D02*
G37*
G36*
X1526540Y1032510D02*
Y1018540D01*
X789694D01*
Y1051560D01*
X1526540D01*
Y1032510D01*
D02*
G37*
G36*
X974090Y933450D02*
X946150D01*
Y972168D01*
X756920D01*
Y987408D01*
X974090D01*
Y933450D01*
D02*
G37*
G36*
X727710Y1339850D02*
X721360Y1333500D01*
X551180D01*
Y1275080D01*
X370840D01*
Y1102360D01*
X737870D01*
Y1019810D01*
Y1012190D01*
X737870Y1004570D01*
Y958850D01*
X873760D01*
Y928370D01*
X857250D01*
X844550Y941070D01*
X721360D01*
Y1073150D01*
X709930Y1084580D01*
X702560D01*
X702310Y1084630D01*
X651510Y1084630D01*
X651260Y1084580D01*
X411480D01*
X356870Y1029970D01*
X254000D01*
Y1112520D01*
X260350Y1118870D01*
X320040D01*
Y1272540D01*
X317500Y1275080D01*
X254000D01*
Y1417320D01*
X727710D01*
Y1339850D01*
D02*
G37*
G36*
X702310Y1082040D02*
X702310Y947420D01*
X715010Y934720D01*
X833120D01*
Y869950D01*
X689610D01*
Y915670D01*
X651510D01*
Y1082040D01*
X702310Y1082040D01*
D02*
G37*
D13*
X254000Y869950D02*
Y1417320D01*
Y869950D02*
X1572260D01*
Y1417320D01*
X254000D02*
X1572260D01*
D17*
X866420Y942340D02*
D03*
X901420D02*
D03*
X917220D02*
D03*
X952220D02*
D03*
X1003020Y942340D02*
D03*
X968020D02*
D03*
X1020090Y942340D02*
D03*
X1055090D02*
D03*
D47*
X934231Y931615D02*
X934231D01*
X917220Y942340D02*
X918570Y940990D01*
X924856D01*
X934231Y931615D01*
X934231D02*
X951446Y914400D01*
X952500D01*
X901420Y942340D02*
X917220D01*
X1003020Y942340D02*
X1015010D01*
X978656Y915156D02*
Y917976D01*
X1001670Y940990D01*
X1001670D01*
X1003020Y942340D01*
X1117600Y996950D02*
X1536880Y996950D01*
X1064975Y944325D02*
X1117600Y996950D01*
X1056640Y944325D02*
X1064975D01*
X1094559Y947420D02*
X1531620D01*
X1079500Y914400D02*
Y915469D01*
X1087120Y939980D02*
X1094559Y947420D01*
X1079500Y915469D02*
X1087120Y923089D01*
Y939980D01*
X977900Y914400D02*
X978656Y915156D01*
X1015010Y942340D02*
X1015010Y942340D01*
X1536880Y996950D02*
X1544320Y1004389D01*
Y1073331D01*
X1413970Y1080770D02*
X1536880D01*
X1544320Y1073331D01*
X1295400Y1196340D02*
X1298400D01*
X1413970Y1080770D01*
X1553994Y900916D02*
X1554480Y900430D01*
X1553994Y900916D02*
Y925046D01*
X1531620Y947420D02*
X1553994Y925046D01*
X1061540Y878840D02*
X1521640D01*
X1528594Y899944D02*
X1529080Y900430D01*
X1528594Y885794D02*
Y899944D01*
X1521640Y878840D02*
X1528594Y885794D01*
X1054100Y886280D02*
Y914400D01*
Y886280D02*
X1061540Y878840D01*
X1003300Y1066800D02*
Y1097460D01*
X1131570Y1104900D02*
X1134110Y1107440D01*
X1010740Y1104900D02*
X1131570D01*
X1003300Y1097460D02*
X1010740Y1104900D01*
X977900Y1066800D02*
Y1125400D01*
X1131570Y1132840D02*
X1132840Y1134110D01*
X985340Y1132840D02*
X1131570D01*
X977900Y1125400D02*
X985340Y1132840D01*
D48*
X1554480Y900430D02*
D03*
X1529080D02*
D03*
X1503680D02*
D03*
X1478280D02*
D03*
X656590Y1292860D02*
D03*
Y1343660D02*
D03*
X689610Y1160780D02*
D03*
X638810D02*
D03*
D49*
X876300Y914400D02*
D03*
X1231900Y1066800D02*
D03*
D50*
X901700Y914400D02*
D03*
X927100D02*
D03*
X952500D02*
D03*
X977900D02*
D03*
X1003300D02*
D03*
X1028700D02*
D03*
X1054100D02*
D03*
X1079500D02*
D03*
X1104900D02*
D03*
X1130300D02*
D03*
X1155700D02*
D03*
X1181100D02*
D03*
X1206500D02*
D03*
X1231900D02*
D03*
X1206500Y1066800D02*
D03*
X1181100D02*
D03*
X1155700D02*
D03*
X1130300D02*
D03*
X1104900D02*
D03*
X1079500D02*
D03*
X1054100D02*
D03*
X1028700D02*
D03*
X1003300D02*
D03*
X977900D02*
D03*
X952500D02*
D03*
X927100D02*
D03*
X901700D02*
D03*
X876300D02*
D03*
D51*
X850900Y914400D02*
D03*
Y1066800D02*
D03*
X1257300D02*
D03*
Y914400D02*
D03*
D52*
X826770Y1301750D02*
D03*
X948690D02*
D03*
D53*
X775970D02*
D03*
X897890D02*
D03*
D54*
X458470Y1219200D02*
D03*
Y1320200D02*
D03*
X1118870Y1337980D02*
D03*
Y1236980D02*
D03*
D55*
X1292860Y1372320D02*
D03*
Y1322070D02*
D03*
X278130Y1298490D02*
D03*
Y1348740D02*
D03*
Y1174500D02*
D03*
Y1224750D02*
D03*
X1295400Y1246590D02*
D03*
Y1196340D02*
D03*
D56*
X276860Y1065530D02*
D03*
Y894080D02*
D03*
X670560Y1065530D02*
D03*
Y894080D02*
D03*
D57*
X770890Y1375410D02*
D03*
X1250950Y1344930D02*
D03*
X1290320Y1400810D02*
D03*
X584200Y1136650D02*
D03*
X585470Y1271270D02*
D03*
X308610Y1173480D02*
D03*
X307340Y1226820D02*
D03*
X309880Y1296670D02*
D03*
Y1351280D02*
D03*
X1499870Y1024890D02*
D03*
Y1041400D02*
D03*
X801370Y1026160D02*
D03*
Y1043940D02*
D03*
X782320Y979170D02*
D03*
X767080D02*
D03*
X814070Y918210D02*
D03*
Y899160D02*
D03*
X815340Y880110D02*
D03*
X1134110Y1107440D02*
D03*
X1132840Y1134110D02*
D03*
X896620Y1219200D02*
D03*
X878840D02*
D03*
X784680Y1190350D02*
D03*
X804680D02*
D03*
X822930D02*
D03*
X841680D02*
D03*
X784680Y1167100D02*
D03*
X804680D02*
D03*
X822930D02*
D03*
X841680D02*
D03*
X784680Y1133600D02*
D03*
X804680D02*
D03*
X822930D02*
D03*
X841680D02*
D03*
X784680Y1110100D02*
D03*
X804680D02*
D03*
X822930D02*
D03*
X841680D02*
D03*
M02*
