G04*
G04 #@! TF.GenerationSoftware,Altium Limited,Altium Designer,20.1.7 (139)*
G04*
G04 Layer_Color=8388736*
%FSLAX44Y44*%
%MOMM*%
G71*
G04*
G04 #@! TF.SameCoordinates,B5950D26-3139-43EA-A648-6E47058778E0*
G04*
G04*
G04 #@! TF.FilePolarity,Positive*
G04*
G01*
G75*
%ADD11C,0.1000*%
%ADD13C,0.2540*%
D11*
X1043300Y1101140D02*
Y1139140D01*
X1090300Y1101140D02*
Y1139140D01*
X1043300D02*
X1090300D01*
X1043300Y1101140D02*
X1090300D01*
X952460Y1109090D02*
X980960D01*
X952460Y1092090D02*
X980960D01*
X952460D02*
Y1109090D01*
X980960Y1092090D02*
Y1109090D01*
X769655Y1021370D02*
X782030Y1033745D01*
X714030Y1021370D02*
X769655D01*
X714030D02*
Y1089370D01*
X769655D01*
X782030Y1076995D01*
Y1033745D02*
Y1076995D01*
X767115Y870240D02*
X779490Y882615D01*
X711490Y870240D02*
X767115D01*
X711490D02*
Y938240D01*
X767115D01*
X779490Y925865D01*
Y882615D02*
Y925865D01*
X707650Y1013440D02*
X769650D01*
X707650Y947440D02*
X769650D01*
X707650D02*
Y1013440D01*
X769650Y947440D02*
Y1013440D01*
X892180Y1096100D02*
Y1202600D01*
X795680Y1096100D02*
Y1202600D01*
Y1096100D02*
X892180D01*
X795680Y1202600D02*
X892180D01*
D13*
X254000Y869950D02*
Y1417320D01*
Y869950D02*
X1572260D01*
Y1417320D01*
X254000D02*
X1572260D01*
M02*
