G04*
G04 #@! TF.GenerationSoftware,Altium Limited,Altium Designer,20.1.7 (139)*
G04*
G04 Layer_Color=65535*
%FSLAX44Y44*%
%MOMM*%
G71*
G04*
G04 #@! TF.SameCoordinates,B5950D26-3139-43EA-A648-6E47058778E0*
G04*
G04*
G04 #@! TF.FilePolarity,Positive*
G04*
G01*
G75*
%ADD10C,0.2500*%
%ADD11C,0.1000*%
%ADD12C,0.2000*%
%ADD13C,0.2540*%
%ADD14C,0.1524*%
%ADD15C,0.0700*%
%ADD16C,0.1270*%
D10*
X1094002Y1097214D02*
G03*
X1093999Y1097297I738J66D01*
G01*
X796900Y944440D02*
G03*
X796900Y944440I-1250J0D01*
G01*
X918430Y1106850D02*
G03*
X918430Y1106850I-1250J0D01*
G01*
D11*
X986335Y1092840D02*
G03*
X986335Y1092840I-500J0D01*
G01*
X838200Y930600D02*
Y1050600D01*
X1270000Y930600D02*
Y1050600D01*
X864100Y1079500D02*
X1244100D01*
X864100Y901700D02*
X1244100D01*
D12*
X568470Y1269700D02*
G03*
X568470Y1269700I-110000J0D01*
G01*
X1228870Y1287480D02*
G03*
X1228870Y1287480I-110000J0D01*
G01*
X1041800Y1139140D02*
X1091800D01*
X1041800Y1101140D02*
X1091800D01*
X1041800D02*
Y1139140D01*
X1091800Y1101140D02*
Y1139140D01*
X748030Y1318250D02*
X854720D01*
X748030Y1269500D02*
Y1318250D01*
Y1269500D02*
X854720D01*
Y1318250D01*
X782030Y1033745D02*
Y1043120D01*
X769655Y1021370D02*
X782030Y1033745D01*
X769655Y1089370D02*
X782030Y1076995D01*
Y1067620D02*
Y1076995D01*
X714030Y1021370D02*
X769655D01*
X714030D02*
Y1043120D01*
Y1067620D02*
Y1089370D01*
X769655D01*
X779490Y882615D02*
Y891990D01*
X767115Y870240D02*
X779490Y882615D01*
X767115Y938240D02*
X779490Y925865D01*
Y916490D02*
Y925865D01*
X711490Y870240D02*
X767115D01*
X711490D02*
Y891990D01*
Y916490D02*
Y938240D01*
X767115D01*
X453390Y1405100D02*
X463550D01*
X458470Y1400020D02*
Y1410180D01*
X1273210Y1308570D02*
Y1383070D01*
Y1308570D02*
X1315110D01*
Y1383070D01*
X1273210D02*
X1315110D01*
X297780Y1287740D02*
Y1362240D01*
X255880D02*
X297780D01*
X255880Y1287740D02*
Y1362240D01*
Y1287740D02*
X297780D01*
X760150Y1013440D02*
X769650D01*
Y947440D02*
Y1013440D01*
X760150Y947440D02*
X769650D01*
X1113790Y1152080D02*
X1123950D01*
X1118870Y1147000D02*
Y1157160D01*
X297780Y1163750D02*
Y1238250D01*
X255880D02*
X297780D01*
X255880Y1163750D02*
Y1238250D01*
Y1163750D02*
X297780D01*
X1275750Y1182840D02*
Y1257340D01*
Y1182840D02*
X1317650D01*
Y1257340D01*
X1275750D02*
X1317650D01*
X869950Y1318250D02*
X976640D01*
X869950Y1269500D02*
Y1318250D01*
Y1269500D02*
X976640D01*
Y1318250D01*
X871430Y1095850D02*
X892180D01*
Y1202850D01*
X871430D02*
X892180D01*
D13*
X730228Y1319530D02*
G03*
X730228Y1319530I-73638J0D01*
G01*
X736578Y1160780D02*
G03*
X736578Y1160780I-73638J0D01*
G01*
X1464310Y887730D02*
X1565910D01*
Y911860D01*
X1464310D02*
X1565910D01*
X1464310Y887730D02*
Y911860D01*
X960210Y1095590D02*
X973460D01*
X960210Y1105340D02*
X973460D01*
X257790Y1083310D02*
X689590D01*
Y873770D02*
Y1083310D01*
X257810Y873760D02*
X689610D01*
X257790Y873770D02*
Y1083310D01*
X895631Y894078D02*
X893092Y896618D01*
X888013D01*
X885474Y894078D01*
Y883922D01*
X888013Y881383D01*
X893092D01*
X895631Y883922D01*
X900709Y896618D02*
X910866D01*
Y894078D01*
X900709Y883922D01*
Y881383D01*
X1041401Y891538D02*
X1038862Y894078D01*
X1033783D01*
X1031244Y891538D01*
Y881382D01*
X1033783Y878842D01*
X1038862D01*
X1041401Y881382D01*
X1056636Y894078D02*
X1051557Y891538D01*
X1046479Y886460D01*
Y881382D01*
X1049018Y878842D01*
X1054097D01*
X1056636Y881382D01*
Y883921D01*
X1054097Y886460D01*
X1046479D01*
X254000Y869950D02*
Y1417320D01*
Y869950D02*
X1572260D01*
Y1417320D01*
X254000D02*
X1572260D01*
D14*
X969680Y899750D02*
X971180D01*
X969680Y878000D02*
Y899750D01*
X971180D02*
X1021680D01*
Y878000D02*
Y899750D01*
X969680Y878000D02*
X1021680D01*
X964580Y878250D02*
X966080D01*
Y900000D01*
X914080Y878250D02*
X964580D01*
X914080D02*
Y900000D01*
X966080D01*
X1156160Y1120320D02*
X1197460D01*
X1146960Y1142570D02*
X1197460D01*
X1146960Y1120320D02*
X1156160D01*
X1197460D02*
Y1142570D01*
X1146960Y1120320D02*
Y1142570D01*
X1040280Y1165680D02*
X1081580D01*
X1040280Y1143430D02*
X1090780D01*
X1081580Y1165680D02*
X1090780D01*
X1040280Y1143430D02*
Y1165680D01*
X1090780Y1143430D02*
Y1165680D01*
X950700Y1111430D02*
X992000D01*
X941500Y1133680D02*
X992000D01*
X941500Y1111430D02*
X950700D01*
X992000D02*
Y1133680D01*
X941500Y1111430D02*
Y1133680D01*
X962480Y1144730D02*
Y1186030D01*
X940230Y1135530D02*
Y1186030D01*
X962480Y1135530D02*
Y1144730D01*
X940230Y1186030D02*
X962480D01*
X940230Y1135530D02*
X962480D01*
X1156160Y1096190D02*
X1197460D01*
X1146960Y1118440D02*
X1197460D01*
X1146960Y1096190D02*
X1156160D01*
X1197460D02*
Y1118440D01*
X1146960Y1096190D02*
Y1118440D01*
X998900Y1096680D02*
Y1098180D01*
Y1096680D02*
X1020650D01*
X998900Y1098180D02*
Y1148680D01*
X1020650D01*
Y1096680D02*
Y1148680D01*
D15*
X1200530Y1100518D02*
Y1101878D01*
Y1096940D02*
Y1100518D01*
Y1112753D02*
Y1117940D01*
Y1096940D02*
X1248280D01*
X1200530Y1101878D02*
Y1112753D01*
Y1117940D02*
X1248280D01*
Y1096940D02*
Y1117940D01*
X1200530Y1124648D02*
Y1126008D01*
Y1121070D02*
Y1124648D01*
Y1136882D02*
Y1142070D01*
Y1121070D02*
X1248280D01*
X1200530Y1126008D02*
Y1136882D01*
Y1142070D02*
X1248280D01*
Y1121070D02*
Y1142070D01*
D16*
X1428752Y901699D02*
X1427483Y902969D01*
X1424944D01*
X1423674Y901699D01*
Y896621D01*
X1424944Y895351D01*
X1427483D01*
X1428752Y896621D01*
X1432561Y895351D02*
X1435100D01*
X1436370Y896621D01*
Y899160D01*
X1435100Y900430D01*
X1432561D01*
X1431292Y899160D01*
Y896621D01*
X1432561Y895351D01*
X1438909D02*
Y900430D01*
X1442718D01*
X1443987Y899160D01*
Y895351D01*
X1446527D02*
X1449066D01*
X1447796D01*
Y902969D01*
X1446527Y901699D01*
X1046481Y1107442D02*
X1052829D01*
X1054099Y1108712D01*
Y1111251D01*
X1052829Y1112520D01*
X1046481D01*
X1047751Y1115060D02*
X1046481Y1116329D01*
Y1118868D01*
X1047751Y1120138D01*
X1049020D01*
X1050290Y1118868D01*
Y1117599D01*
Y1118868D01*
X1051560Y1120138D01*
X1052829D01*
X1054099Y1118868D01*
Y1116329D01*
X1052829Y1115060D01*
X257810Y1098548D02*
Y1092200D01*
X259080Y1090930D01*
X261619D01*
X262888Y1092200D01*
Y1098548D01*
X270506Y1090930D02*
X265427D01*
X270506Y1096008D01*
Y1097278D01*
X269236Y1098548D01*
X266697D01*
X265427Y1097278D01*
X695424Y1030221D02*
Y1023874D01*
X696694Y1022604D01*
X699233D01*
X700502Y1023874D01*
Y1030221D01*
X703042Y1022604D02*
X705581D01*
X704311D01*
Y1030221D01*
X703042Y1028952D01*
X1245870Y1285237D02*
X1250948D01*
X1248409D01*
Y1277620D01*
X1257296D02*
Y1285237D01*
X1253487Y1281429D01*
X1258566D01*
X254000Y1268727D02*
X259078D01*
X256539D01*
Y1261110D01*
X261618Y1267458D02*
X262887Y1268727D01*
X265426D01*
X266696Y1267458D01*
Y1266188D01*
X265426Y1264919D01*
X264157D01*
X265426D01*
X266696Y1263649D01*
Y1262380D01*
X265426Y1261110D01*
X262887D01*
X261618Y1262380D01*
X254000Y1392679D02*
X259078D01*
X256539D01*
Y1385062D01*
X266696D02*
X261618D01*
X266696Y1390140D01*
Y1391410D01*
X265426Y1392679D01*
X262887D01*
X261618Y1391410D01*
X1243330Y1411029D02*
X1248408D01*
X1245869D01*
Y1403412D01*
X1250947D02*
X1253487D01*
X1252217D01*
Y1411029D01*
X1250947Y1409760D01*
X1163322Y1146811D02*
Y1154429D01*
X1167131D01*
X1168400Y1153159D01*
Y1150620D01*
X1167131Y1149350D01*
X1163322D01*
X1165861D02*
X1168400Y1146811D01*
X1170940Y1148081D02*
X1172209Y1146811D01*
X1174748D01*
X1176018Y1148081D01*
Y1153159D01*
X1174748Y1154429D01*
X1172209D01*
X1170940Y1153159D01*
Y1151890D01*
X1172209Y1150620D01*
X1176018D01*
X1167132Y1084581D02*
Y1092199D01*
X1170941D01*
X1172210Y1090929D01*
Y1088390D01*
X1170941Y1087120D01*
X1167132D01*
X1169671D02*
X1172210Y1084581D01*
X1174750Y1090929D02*
X1176019Y1092199D01*
X1178558D01*
X1179828Y1090929D01*
Y1089660D01*
X1178558Y1088390D01*
X1179828Y1087120D01*
Y1085851D01*
X1178558Y1084581D01*
X1176019D01*
X1174750Y1085851D01*
Y1087120D01*
X1176019Y1088390D01*
X1174750Y1089660D01*
Y1090929D01*
X1176019Y1088390D02*
X1178558D01*
X1027431Y1160778D02*
X1035049D01*
Y1156969D01*
X1033779Y1155700D01*
X1031240D01*
X1029970Y1156969D01*
Y1160778D01*
Y1158239D02*
X1027431Y1155700D01*
X1035049Y1148082D02*
Y1153160D01*
X1031240D01*
X1032510Y1150621D01*
Y1149352D01*
X1031240Y1148082D01*
X1028701D01*
X1027431Y1149352D01*
Y1151891D01*
X1028701Y1153160D01*
X975359Y1153162D02*
X967741D01*
Y1156971D01*
X969011Y1158240D01*
X971550D01*
X972820Y1156971D01*
Y1153162D01*
Y1155701D02*
X975359Y1158240D01*
Y1165858D02*
Y1160780D01*
X970280Y1165858D01*
X969011D01*
X967741Y1164588D01*
Y1162049D01*
X969011Y1160780D01*
X973099Y1117602D02*
X965481D01*
Y1121410D01*
X966751Y1122680D01*
X969290D01*
X970560Y1121410D01*
Y1117602D01*
Y1120141D02*
X973099Y1122680D01*
Y1125219D02*
Y1127758D01*
Y1126489D01*
X965481D01*
X966751Y1125219D01*
X759928Y1214628D02*
Y1219706D01*
X758659Y1220975D01*
X756120D01*
X754850Y1219706D01*
Y1214628D01*
X756120Y1213358D01*
X758659D01*
X757389Y1215897D02*
X759928Y1213358D01*
X758659D02*
X759928Y1214628D01*
X762467Y1213358D02*
X765007D01*
X763737D01*
Y1220975D01*
X762467Y1219706D01*
X1254764Y1140459D02*
Y1132841D01*
X1259843D01*
X1267460Y1140459D02*
X1262382D01*
Y1132841D01*
X1267460D01*
X1262382Y1136650D02*
X1264921D01*
X1270000Y1140459D02*
Y1132841D01*
X1273808D01*
X1275078Y1134111D01*
Y1139189D01*
X1273808Y1140459D01*
X1270000D01*
X1282695Y1132841D02*
X1277617D01*
X1282695Y1137920D01*
Y1139189D01*
X1281426Y1140459D01*
X1278887D01*
X1277617Y1139189D01*
X1259844Y1113789D02*
Y1106171D01*
X1264922D01*
X1272540Y1113789D02*
X1267462D01*
Y1106171D01*
X1272540D01*
X1267462Y1109980D02*
X1270001D01*
X1275079Y1113789D02*
Y1106171D01*
X1278888D01*
X1280157Y1107441D01*
Y1112519D01*
X1278888Y1113789D01*
X1275079D01*
X1282697Y1106171D02*
X1285236D01*
X1283966D01*
Y1113789D01*
X1282697Y1112519D01*
X589280Y1249678D02*
Y1242060D01*
X594358D01*
X601976D02*
X596898D01*
X601976Y1247138D01*
Y1248408D01*
X600706Y1249678D01*
X598167D01*
X596898Y1248408D01*
X582930Y1408427D02*
Y1400810D01*
X588008D01*
X590547D02*
X593087D01*
X591817D01*
Y1408427D01*
X590547Y1407158D01*
X860428Y1037589D02*
X862967D01*
X861697D01*
Y1029971D01*
X860428D01*
X862967D01*
X871854Y1036319D02*
X870584Y1037589D01*
X868045D01*
X866776Y1036319D01*
Y1031241D01*
X868045Y1029971D01*
X870584D01*
X871854Y1031241D01*
X874393Y1029971D02*
X876932D01*
X875663D01*
Y1037589D01*
X874393Y1036319D01*
X974088Y1083311D02*
Y1090929D01*
X970279D01*
X969009Y1089659D01*
Y1084581D01*
X970279Y1083311D01*
X974088D01*
X966470Y1084581D02*
X965201Y1083311D01*
X962662D01*
X961392Y1084581D01*
Y1085850D01*
X962662Y1087120D01*
X963931D01*
X962662D01*
X961392Y1088390D01*
Y1089659D01*
X962662Y1090929D01*
X965201D01*
X966470Y1089659D01*
X868426Y1334514D02*
Y1326896D01*
X872235D01*
X873504Y1328166D01*
Y1333244D01*
X872235Y1334514D01*
X868426D01*
X881122Y1326896D02*
X876043D01*
X881122Y1331974D01*
Y1333244D01*
X879852Y1334514D01*
X877313D01*
X876043Y1333244D01*
X753112Y1337309D02*
Y1329691D01*
X756920D01*
X758190Y1330961D01*
Y1336039D01*
X756920Y1337309D01*
X753112D01*
X760729Y1329691D02*
X763268D01*
X761999D01*
Y1337309D01*
X760729Y1336039D01*
X1004568Y1162048D02*
X1003299Y1163317D01*
X1000760D01*
X999490Y1162048D01*
Y1156970D01*
X1000760Y1155700D01*
X1003299D01*
X1004568Y1156970D01*
X1012186Y1163317D02*
X1007107D01*
Y1159509D01*
X1009647Y1160778D01*
X1010916D01*
X1012186Y1159509D01*
Y1156970D01*
X1010916Y1155700D01*
X1008377D01*
X1007107Y1156970D01*
X1013458Y1411130D02*
X1012189Y1412399D01*
X1009650D01*
X1008380Y1411130D01*
Y1406052D01*
X1009650Y1404782D01*
X1012189D01*
X1013458Y1406052D01*
X1019806Y1404782D02*
Y1412399D01*
X1015997Y1408591D01*
X1021076D01*
X792481Y1082040D02*
X791211Y1080771D01*
Y1078232D01*
X792481Y1076962D01*
X797559D01*
X798829Y1078232D01*
Y1080771D01*
X797559Y1082040D01*
X792481Y1084580D02*
X791211Y1085849D01*
Y1088388D01*
X792481Y1089658D01*
X793750D01*
X795020Y1088388D01*
Y1087119D01*
Y1088388D01*
X796290Y1089658D01*
X797559D01*
X798829Y1088388D01*
Y1085849D01*
X797559Y1084580D01*
X370840Y1403349D02*
X369571Y1404619D01*
X367032D01*
X365762Y1403349D01*
Y1398271D01*
X367032Y1397001D01*
X369571D01*
X370840Y1398271D01*
X378458Y1397001D02*
X373380D01*
X378458Y1402080D01*
Y1403349D01*
X377188Y1404619D01*
X374649D01*
X373380Y1403349D01*
X789940Y933449D02*
X788670Y934719D01*
X786131D01*
X784862Y933449D01*
Y928371D01*
X786131Y927101D01*
X788670D01*
X789940Y928371D01*
X792479Y927101D02*
X795018D01*
X793749D01*
Y934719D01*
X792479Y933449D01*
M02*
