G04*
G04 #@! TF.GenerationSoftware,Altium Limited,Altium Designer,20.1.7 (139)*
G04*
G04 Layer_Color=8421504*
%FSLAX44Y44*%
%MOMM*%
G71*
G04*
G04 #@! TF.SameCoordinates,B5950D26-3139-43EA-A648-6E47058778E0*
G04*
G04*
G04 #@! TF.FilePolarity,Positive*
G04*
G01*
G75*
%ADD13C,0.2540*%
%ADD17R,1.0000X1.7000*%
%ADD18R,1.2000X0.8000*%
%ADD19R,1.7000X1.0000*%
%ADD20R,1.1000X0.9500*%
%ADD21R,1.2000X1.7000*%
%ADD22R,3.4500X1.8500*%
%ADD23R,6.1000X6.3000*%
%ADD24R,2.8000X1.5000*%
%ADD25R,9.6500X11.0000*%
%ADD26R,3.8100X2.3200*%
D13*
X254000Y869950D02*
Y1417320D01*
Y869950D02*
X1572260D01*
Y1417320D01*
X254000D02*
X1572260D01*
D17*
X1013180Y889000D02*
D03*
X978180D02*
D03*
X922580Y889000D02*
D03*
X957580D02*
D03*
X1154710Y1131570D02*
D03*
X1189710D02*
D03*
X1083030Y1154430D02*
D03*
X1048030D02*
D03*
X949250Y1122680D02*
D03*
X984250D02*
D03*
X1154710Y1107440D02*
D03*
X1189710D02*
D03*
D18*
X1035300Y1132840D02*
D03*
Y1120140D02*
D03*
Y1107440D02*
D03*
X1098300D02*
D03*
Y1132840D02*
D03*
D19*
X951230Y1143280D02*
D03*
Y1178280D02*
D03*
X1009650Y1140180D02*
D03*
Y1105180D02*
D03*
D20*
X951085Y1100590D02*
D03*
X982335D02*
D03*
D21*
X1208280Y1107440D02*
D03*
X1240280D02*
D03*
X1208280Y1131570D02*
D03*
X1240280D02*
D03*
D22*
X775030Y1055370D02*
D03*
X721030D02*
D03*
X772490Y904240D02*
D03*
X718490D02*
D03*
D23*
X725650Y980440D02*
D03*
D24*
X795650Y1003190D02*
D03*
Y957690D02*
D03*
D25*
X805180Y1149350D02*
D03*
D26*
X917180Y1123950D02*
D03*
Y1174750D02*
D03*
M02*
