G04*
G04 #@! TF.GenerationSoftware,Altium Limited,Altium Designer,20.1.7 (139)*
G04*
G04 Layer_Color=16711935*
%FSLAX44Y44*%
%MOMM*%
G71*
G04*
G04 #@! TF.SameCoordinates,B5950D26-3139-43EA-A648-6E47058778E0*
G04*
G04*
G04 #@! TF.FilePolarity,Negative*
G04*
G01*
G75*
%ADD13C,0.2540*%
%ADD27R,1.2032X1.9032*%
%ADD37C,1.7272*%
%ADD38R,1.8682X1.8682*%
%ADD39C,1.8682*%
%ADD40C,2.6782*%
%ADD41R,2.2732X2.2732*%
%ADD42C,2.2732*%
%ADD43C,3.2032*%
%ADD44R,2.7032X2.1032*%
%ADD45R,2.7032X2.7032*%
%ADD46C,1.4732*%
D13*
X254000Y869950D02*
Y1417320D01*
Y869950D02*
X1572260D01*
Y1417320D01*
X254000D02*
X1572260D01*
D27*
X866420Y942340D02*
D03*
X901420D02*
D03*
X917220D02*
D03*
X952220D02*
D03*
X1003020Y942340D02*
D03*
X968020D02*
D03*
X1020090Y942340D02*
D03*
X1055090D02*
D03*
D37*
X1554480Y900430D02*
D03*
X1529080D02*
D03*
X1503680D02*
D03*
X1478280D02*
D03*
X656590Y1292860D02*
D03*
Y1343660D02*
D03*
X689610Y1160780D02*
D03*
X638810D02*
D03*
D38*
X876300Y914400D02*
D03*
X1231900Y1066800D02*
D03*
D39*
X901700Y914400D02*
D03*
X927100D02*
D03*
X952500D02*
D03*
X977900D02*
D03*
X1003300D02*
D03*
X1028700D02*
D03*
X1054100D02*
D03*
X1079500D02*
D03*
X1104900D02*
D03*
X1130300D02*
D03*
X1155700D02*
D03*
X1181100D02*
D03*
X1206500D02*
D03*
X1231900D02*
D03*
X1206500Y1066800D02*
D03*
X1181100D02*
D03*
X1155700D02*
D03*
X1130300D02*
D03*
X1104900D02*
D03*
X1079500D02*
D03*
X1054100D02*
D03*
X1028700D02*
D03*
X1003300D02*
D03*
X977900D02*
D03*
X952500D02*
D03*
X927100D02*
D03*
X901700D02*
D03*
X876300D02*
D03*
D40*
X850900Y914400D02*
D03*
Y1066800D02*
D03*
X1257300D02*
D03*
Y914400D02*
D03*
D41*
X826770Y1301750D02*
D03*
X948690D02*
D03*
D42*
X775970D02*
D03*
X897890D02*
D03*
D43*
X458470Y1219200D02*
D03*
Y1320200D02*
D03*
X1118870Y1337980D02*
D03*
Y1236980D02*
D03*
D44*
X1292860Y1372320D02*
D03*
Y1322070D02*
D03*
X278130Y1298490D02*
D03*
Y1348740D02*
D03*
Y1174500D02*
D03*
Y1224750D02*
D03*
X1295400Y1246590D02*
D03*
Y1196340D02*
D03*
D45*
X276860Y1065530D02*
D03*
Y894080D02*
D03*
X670560Y1065530D02*
D03*
Y894080D02*
D03*
D46*
X770890Y1375410D02*
D03*
X1250950Y1344930D02*
D03*
X1290320Y1400810D02*
D03*
X584200Y1136650D02*
D03*
X585470Y1271270D02*
D03*
X308610Y1173480D02*
D03*
X307340Y1226820D02*
D03*
X309880Y1296670D02*
D03*
Y1351280D02*
D03*
X1499870Y1024890D02*
D03*
Y1041400D02*
D03*
X801370Y1026160D02*
D03*
Y1043940D02*
D03*
X782320Y979170D02*
D03*
X767080D02*
D03*
X814070Y918210D02*
D03*
Y899160D02*
D03*
X815340Y880110D02*
D03*
X1134110Y1107440D02*
D03*
X1132840Y1134110D02*
D03*
X896620Y1219200D02*
D03*
X878840D02*
D03*
X784680Y1190350D02*
D03*
X804680D02*
D03*
X822930D02*
D03*
X841680D02*
D03*
X784680Y1167100D02*
D03*
X804680D02*
D03*
X822930D02*
D03*
X841680D02*
D03*
X784680Y1133600D02*
D03*
X804680D02*
D03*
X822930D02*
D03*
X841680D02*
D03*
X784680Y1110100D02*
D03*
X804680D02*
D03*
X822930D02*
D03*
X841680D02*
D03*
M02*
