M48
;Layer_Color=9474304
;FILE_FORMAT=4:4
METRIC,LZ
;TYPE=PLATED
T1F00S00C0.7112
T2F00S00C0.7620
T3F00S00C1.0000
T4F00S00C1.1100
T5F00S00C1.3800
T6F00S00C1.5000
T7F00S00C1.6500
T8F00S00C2.0000
%
T01
X0030861Y0117348
X005842Y0113665
X0078468Y011336
Y011101
Y011671
Y0119035
X0078232Y0097917
X0076708
X0080137Y0102616
Y0104394
X0080468Y011101
X0082293
X0084168
Y011336
X0082293
X0080468
Y011671
X0082293
X0084168
Y0119035
X0082293
X0080468
X0081407Y0091821
Y0089916
X0081534Y0088011
X0113411Y0110744
X0113284Y0113411
X0149987Y010414
Y0102489
X0125095Y0134493
X0129032Y0140081
X0089662Y012192
X0087884
X0077089Y0137541
X0058547Y0127127
X0030988Y0129667
Y0135128
X0030734Y0122682
T02
X0063881Y0116078
X0068961
X0147828Y0090043
X0150368
X0152908
X0155448
X0065659Y0129286
Y0134366
T03
X0027813Y011745
X012954Y0119634
Y0124659
X0129286Y0132207
Y0137232
X0027813Y0134874
Y0129849
Y0122475
T04
X008763Y009144
X009017
X009271
X009525
X009779
X010033
X010287
X010541
X010795
X011049
X011303
X011557
X011811
Y010668
X011557
X011303
X011049
X010795
X010541
X010287
X010033
X009779
X009525
X009271
X009017
X008763
X012065
X012319
Y009144
X012065
T05
X0082677Y0130175
X0089789
X0094869
X0077597
T06
X0027686Y0089408
Y0106553
X0067056
Y0089408
T07
X008509Y009144
Y010668
X012573
Y009144
T08
X0111887Y0123698
Y0133798
X0045847Y013202
Y012192
M30
